<svg width="76" height="76" viewBox="0 0 76 76" fill="none" xmlns="http://www.w3.org/2000/svg">
<g clip-path="url(#clip0_5444_2755)">
<path fill-rule="evenodd" clip-rule="evenodd" d="M14.1078 14.7963C10.0285 15.5156 7.30477 19.4055 8.02405 23.4848L9.32642 30.8708L64.9681 21.0597C66.3278 20.8199 67.6244 21.7279 67.8642 23.0876L72.9 51.647C74.0988 58.4457 69.5592 64.9289 62.7605 66.1277L24.353 72.9C17.5543 74.0988 11.0711 69.5592 9.87229 62.7605L3.10002 24.353C1.90122 17.5543 6.4408 11.0711 13.2395 9.87231L51.647 3.10003C58.4457 1.90123 64.9289 6.44082 66.1277 13.2395C66.3675 14.5993 65.4595 15.8959 64.0998 16.1357C62.7401 16.3754 61.4434 15.4675 61.2037 14.1078C60.4844 10.0285 56.5945 7.30479 52.5153 8.02407L14.1078 14.7963ZM10.1947 35.7949L14.7963 61.8923C15.5156 65.9715 19.4055 68.6952 23.4848 67.976L61.8923 61.2037C65.9715 60.4844 68.6952 56.5945 67.976 52.5153L63.3743 26.4179L10.1947 35.7949Z" fill="#333333" fill-opacity="0.1"/>
<path fill-rule="evenodd" clip-rule="evenodd" d="M24.1544 42.9799C22.7947 43.2197 21.8868 44.5164 22.1265 45.8761L23.863 55.7241C24.1027 57.0838 25.3994 57.9918 26.7591 57.752L31.6832 56.8838C33.0429 56.6441 33.9508 55.3474 33.7111 53.9877L31.9746 44.1396C31.7348 42.7799 30.4381 41.8719 29.0784 42.1117L24.1544 42.9799ZM17.2025 46.7443C16.4832 42.6652 19.207 38.7752 23.2862 38.0559L28.2102 37.1877C32.2894 36.4684 36.1794 39.1922 36.8986 43.2713L38.6351 53.1194C39.3544 57.1986 36.6306 61.0886 32.5514 61.8078L27.6274 62.6761C23.5482 63.3954 19.6582 60.6715 18.939 56.5924L17.2025 46.7443ZM40.9544 37.4791C40.7147 36.1193 41.6226 34.8227 42.9823 34.5829L56.7696 32.1519C58.1294 31.9121 59.426 32.82 59.6658 34.1798C59.9055 35.5395 58.9976 36.8361 57.6379 37.0759L43.8506 39.507C42.4908 39.7467 41.1942 38.8388 40.9544 37.4791ZM42.6909 47.3271C42.4511 45.9674 43.3591 44.6708 44.7188 44.431L58.5061 41.9999C59.8658 41.7602 61.1625 42.6681 61.4023 44.0278C61.642 45.3876 60.7341 46.6842 59.3744 46.924L45.587 49.355C44.2273 49.5948 42.9307 48.6869 42.6909 47.3271ZM44.4274 57.1752C44.1876 55.8155 45.0955 54.5188 46.4553 54.2791L60.2426 51.848C61.6023 51.6083 62.899 52.5162 63.1387 53.8759C63.3785 55.2356 62.4706 56.5323 61.1108 56.772L47.3235 59.2031C45.9638 59.4429 44.6671 58.535 44.4274 57.1752Z" fill="#333333" fill-opacity="0.1"/>
</g>
<defs>
<clipPath id="clip0_5444_2755">
<rect width="64" height="64" fill="white" transform="translate(0.929413 12.0429) rotate(-10)"/>
</clipPath>
</defs>
</svg>
