<svg width="65" height="70" viewBox="0 0 65 70" fill="none" xmlns="http://www.w3.org/2000/svg">
<path fill-rule="evenodd" clip-rule="evenodd" d="M55.1866 33.1343C55.4264 34.494 56.723 35.4019 58.0828 35.1622C62.1621 34.4429 64.8857 30.5529 64.1665 26.4738C63.4472 22.3946 59.5574 19.6708 55.478 20.3901C54.1183 20.6298 53.2104 21.9265 53.4502 23.2862C53.6899 24.6459 54.9866 25.5539 56.3463 25.3141C57.7061 25.0743 59.0027 25.9823 59.2424 27.342C59.4822 28.7017 58.5743 29.9984 57.2145 30.2381C55.8548 30.4779 54.9469 31.7745 55.1866 33.1343Z" fill="#333333" fill-opacity="0.1"/>
<path fill-rule="evenodd" clip-rule="evenodd" d="M48.0768 59.7724C45.8564 60.1256 43.7005 59.4611 42.0982 58.1265L30.5746 48.5281C30.2953 48.2954 29.9686 48.1264 29.6173 48.033C29.266 47.9395 28.8986 47.9238 28.5406 47.9869L13.5917 50.6228C8.15278 51.5818 2.9662 47.9502 2.00717 42.5112L0.270691 32.6632C-0.688337 27.2243 2.94335 22.0377 8.38227 21.0787L23.3311 18.4428C23.6891 18.3796 24.029 18.2392 24.3272 18.0312C24.6253 17.8232 24.8745 17.5527 25.0574 17.2386L32.6032 4.27764C33.6523 2.47587 35.4508 1.1137 37.6583 0.686256C41.8346 -0.122711 45.7707 2.76866 46.4885 6.83966L54.2699 50.97C54.9877 55.0408 52.2779 59.1042 48.0768 59.7724ZM49.3458 51.8382C49.5994 53.2764 48.6149 54.624 47.2914 54.8345C46.5539 54.9518 45.8386 54.7347 45.2982 54.2846L33.7748 44.6863C32.9368 43.9883 31.9566 43.4814 30.9027 43.201C29.8488 42.9206 28.7463 42.8735 27.6723 43.0629L12.7235 45.6988C10.004 46.1783 7.41072 44.3624 6.93121 41.643L5.19473 31.7949C4.71522 29.0755 6.53106 26.4822 9.25051 26.0027L24.1994 23.3668C25.2734 23.1774 26.2932 22.7561 27.1877 22.1321C28.0821 21.5082 28.8298 20.6967 29.3785 19.7542M29.3785 19.7542L36.9241 6.79342C37.2781 6.18558 37.876 5.73695 38.6089 5.59507C39.9246 5.34021 41.3109 6.26966 41.5645 7.7079L49.3458 51.8382" fill="#333333" fill-opacity="0.1"/>
<path fill-rule="evenodd" clip-rule="evenodd" d="M10.6646 62.8163C11.3839 66.8954 15.2737 69.6193 19.353 68.9C23.4323 68.1807 26.156 64.2907 25.4367 60.2116L24.7421 56.2724C24.5024 54.9126 23.2057 54.0047 21.846 54.2445C20.4862 54.4842 19.5783 55.7809 19.8181 57.1406L20.5127 61.0798C20.7524 62.4395 19.8445 63.7362 18.4848 63.9759C17.125 64.2157 15.8284 63.3078 15.5887 61.9481L14.8941 58.0088C14.6543 56.6491 13.3577 55.7412 11.9979 55.9809C10.6382 56.2207 9.73027 57.5173 9.97003 58.8771L10.6646 62.8163Z" fill="#333333" fill-opacity="0.1"/>
<path fill-rule="evenodd" clip-rule="evenodd" d="M24.1653 38.6042C25.525 38.3644 26.4329 37.0678 26.1932 35.708L25.3249 30.784C25.0852 29.4243 23.7885 28.5163 22.4288 28.7561C21.0691 28.9959 20.1611 30.2925 20.4009 31.6522L21.2691 36.5763C21.5089 37.936 22.8055 38.8439 24.1653 38.6042Z" fill="#333333" fill-opacity="0.1"/>
</svg>
