<svg width="71" height="68" viewBox="0 0 71 68" fill="none" xmlns="http://www.w3.org/2000/svg">
<path fill-rule="evenodd" clip-rule="evenodd" d="M3.07421 38.2204C4.51251 46.3774 12.291 51.8239 20.448 50.3856L53.9339 44.4811C62.0924 43.0426 67.5398 35.2628 66.1013 27.1043L63.5617 12.7016C62.1232 4.54324 54.3434 -0.904359 46.1849 0.534201L12.7015 6.43822C4.54305 7.87678 -0.904373 15.6567 0.534159 23.815L3.07421 38.2204ZM19.5797 45.4616C14.1422 46.4203 8.95703 42.7896 7.99825 37.3521L5.4582 22.9468C4.49918 17.5079 8.13079 12.3213 13.5698 11.3623L47.0531 5.45824C52.4921 4.4992 57.6786 8.13093 58.6376 13.5698L61.1772 27.9726C62.1363 33.4116 58.5047 38.5981 53.0657 39.5571L19.5797 45.4616Z" fill="#333333" fill-opacity="0.1"/>
<path fill-rule="evenodd" clip-rule="evenodd" d="M31.4065 31.71C30.9292 32.1209 30.2509 31.8223 30.1592 31.3023L28.4599 21.6653C28.3682 21.1453 28.9035 20.6327 29.4925 20.8555C29.4925 20.8555 29.4926 20.8555 29.4925 20.8555L38.4505 24.2443C38.9713 24.4413 39.0872 25.0984 38.6652 25.4617L31.4065 31.71ZM34.6684 35.4994C31.3165 38.3848 26.0146 36.5912 25.2351 32.1705L23.5359 22.5336C22.7564 18.1128 27.1251 14.6142 31.2616 16.1789L40.2195 19.5678C40.2195 19.5677 40.2196 19.5678 40.2195 19.5678C44.2883 21.1069 45.224 26.4133 41.9271 29.2512C41.927 29.2512 41.9271 29.2512 41.9271 29.2512L34.6684 35.4994C34.6684 35.4994 34.6684 35.4994 34.6684 35.4994Z" fill="#333333" fill-opacity="0.1"/>
<path fill-rule="evenodd" clip-rule="evenodd" d="M33.0475 67.8379C34.4073 67.5982 35.3152 66.3015 35.0754 64.9418L33.339 55.0937C33.0992 53.734 31.8026 52.8261 30.4428 53.0658C29.0831 53.3056 28.1752 54.6022 28.4149 55.962L30.1514 65.81C30.3912 67.1698 31.6878 68.0777 33.0475 67.8379Z" fill="#333333" fill-opacity="0.1"/>
<path fill-rule="evenodd" clip-rule="evenodd" d="M39.1312 59.1495C39.371 60.5093 40.6676 61.4172 42.0274 61.1774L68.7402 56.4672C70.0999 56.2275 71.0078 54.9308 70.7681 53.5711C70.5283 52.2114 69.2317 51.3034 67.8719 51.5432L41.1591 56.2534C39.7994 56.4931 38.8915 57.7898 39.1312 59.1495Z" fill="#333333" fill-opacity="0.1"/>
<path fill-rule="evenodd" clip-rule="evenodd" d="M7.74056 64.6845C7.98032 66.0443 9.27696 66.9522 10.6367 66.7124L22.3313 64.6504C23.691 64.4106 24.5989 63.114 24.3592 61.7542C24.1194 60.3945 22.8228 59.4866 21.463 59.7263L9.76846 61.7884C8.40872 62.0282 7.5008 63.3248 7.74056 64.6845Z" fill="#333333" fill-opacity="0.1"/>
</svg>
