<svg width="65" height="72" viewBox="0 0 65 72" fill="none" xmlns="http://www.w3.org/2000/svg">
<path fill-rule="evenodd" clip-rule="evenodd" d="M3.52257 54.5475C4.24183 58.6267 8.13182 61.3505 12.211 60.6312C16.2901 59.9119 19.0139 56.0219 18.2947 51.9428C17.5754 47.8636 13.6854 45.1398 9.60625 45.8591C5.5271 46.5784 2.8033 50.4684 3.52257 54.5475ZM11.3427 55.7072C9.98305 55.9469 8.68635 55.0389 8.44661 53.6793C8.20686 52.3196 9.11481 51.0229 10.4745 50.7831C11.8342 50.5434 13.1309 51.4514 13.3706 52.811C13.6104 54.1707 12.7024 55.4674 11.3427 55.7072Z" fill="#333333" fill-opacity="0.1"/>
<path fill-rule="evenodd" clip-rule="evenodd" d="M23.2187 51.0746C23.9379 55.1537 27.8279 57.8775 31.9071 57.1582C35.9862 56.439 38.71 52.549 37.9907 48.4698L36.2543 38.6218C35.535 34.5426 31.645 31.8188 27.5659 32.5381C23.4867 33.2574 20.7629 37.1474 21.4822 41.2265L23.2187 51.0746ZM31.0388 52.2342C29.6791 52.4739 28.3824 51.566 28.1427 50.2063L26.4062 40.3583C26.1665 38.9986 27.0744 37.7019 28.4341 37.4621C29.7938 37.2224 31.0905 38.1304 31.3302 39.49L33.0667 49.3381C33.3065 50.6978 32.3985 51.9945 31.0388 52.2342Z" fill="#333333" fill-opacity="0.1"/>
<path fill-rule="evenodd" clip-rule="evenodd" d="M42.9148 47.6016C43.634 51.6808 47.524 54.4045 51.6032 53.6853C55.6823 52.966 58.4061 49.076 57.6868 44.9969L54.2139 25.3008C53.4946 21.2216 49.6046 18.4978 45.5255 19.2171C41.4463 19.9364 38.7225 23.8264 39.4418 27.9055L42.9148 47.6016ZM50.7349 48.7612C49.3752 49.001 48.0785 48.093 47.8388 46.7334L44.3658 27.0373C44.1261 25.6776 45.0341 24.3809 46.3937 24.1411C47.7534 23.9014 49.0501 24.8093 49.2899 26.169L52.7628 45.8651C53.0026 47.2248 52.0946 48.5215 50.7349 48.7612Z" fill="#333333" fill-opacity="0.1"/>
<path fill-rule="evenodd" clip-rule="evenodd" d="M1.60884 69.6086C1.8486 70.9683 3.14524 71.8763 4.50498 71.6365L62.6085 61.3913C63.9682 61.1515 64.8761 59.8549 64.6364 58.4951C64.3966 57.1354 63.1 56.2275 61.7402 56.4672L3.63674 66.7125C2.277 66.9522 1.36908 68.2489 1.60884 69.6086Z" fill="#333333" fill-opacity="0.1"/>
<path d="M46.772 11.8894C47.0117 13.2491 46.1038 14.5457 44.7441 14.7855C43.3843 15.0253 42.0877 14.1173 41.8479 12.7576L41.1595 8.8534L33.294 20.0866C30.918 23.4798 26.2414 24.3042 22.8485 21.9284L22.3516 21.5805C21.2206 20.7886 19.6617 21.0635 18.8698 22.1945L5.51458 41.2677C4.72263 42.3987 3.16377 42.6735 2.03276 41.8816C0.901743 41.0897 0.626873 39.5308 1.41882 38.3998L14.774 19.3266C17.1498 15.9335 21.8265 15.1089 25.2195 17.4848L25.7163 17.8326C26.8474 18.6246 28.4062 18.3498 29.1982 17.2187L37.0638 5.98551L33.1596 6.67393C31.7998 6.91368 30.5032 6.00576 30.2634 4.64603C30.0237 3.28629 30.9316 1.98965 32.2913 1.74989L37.2153 0.88165C41.2945 0.162385 45.1845 2.88618 45.9037 6.96533L46.772 11.8894Z" fill="#333333" fill-opacity="0.1"/>
</svg>
