<svg width="68" height="65" viewBox="0 0 68 65" fill="none" xmlns="http://www.w3.org/2000/svg">
<path fill-rule="evenodd" clip-rule="evenodd" d="M13.8737 11.0856C8.43481 12.0446 4.80308 17.2313 5.7621 22.6702L9.32234 42.8613C10.2811 48.2988 15.4663 51.9296 20.9039 50.9708L54.3899 45.0663C59.8288 44.1073 63.4605 38.9206 62.5015 33.4817L58.9417 13.2932C57.9827 7.85429 52.796 4.22255 47.3572 5.18157L13.8737 11.0856ZM0.83806 23.5384C-0.600478 15.3801 4.8471 7.60011 13.0055 6.16157L46.4889 0.257536C54.6473 -1.181 62.4272 4.26657 63.8658 12.4249L67.4255 32.6135C68.8641 40.7718 63.4165 48.5518 55.2581 49.9903L21.7721 55.8948C13.6151 57.3331 5.8366 51.8866 4.3983 43.7296L0.83806 23.5384ZM35.6345 15.3439C37.0075 15.4892 38.0029 16.72 37.8576 18.0931L35.6679 38.7877C35.5226 40.1608 34.2918 41.1561 32.9187 41.0108C31.5457 40.8655 30.5504 39.6347 30.6956 38.2616L32.8853 17.567C33.0306 16.1939 34.2615 15.1986 35.6345 15.3439ZM22.4698 20.8506C23.5999 21.6439 23.8729 23.2031 23.0796 24.3331L19.1007 30.0013C18.709 30.5589 18.8424 31.3233 19.3987 31.7155L25.0557 35.6096C26.193 36.3925 26.4803 37.9491 25.6974 39.0864C24.9145 40.2237 23.3579 40.511 22.2206 39.7281L16.5552 35.8282C16.5508 35.8251 16.5464 35.8221 16.542 35.819C13.7125 33.8443 13.0258 29.9514 15.0089 27.1278C15.009 27.1276 15.0092 27.1274 15.0094 27.1271L18.9873 21.4604C19.7806 20.3303 21.3398 20.0573 22.4698 20.8506ZM42.8655 17.2543C43.6561 16.1223 45.2146 15.8456 46.3465 16.6362L52.0227 20.6007C54.8525 22.5756 55.539 26.4689 53.5553 29.2926C53.5522 29.297 53.5491 29.3013 53.546 29.3057L49.5561 34.9082C48.7552 36.0328 47.1942 36.2952 46.0695 35.4943C44.9449 34.6933 44.6824 33.1323 45.4834 32.0077L49.464 26.4184C49.4651 26.4168 49.4661 26.4153 49.4672 26.4137C49.856 25.855 49.7199 25.0908 49.1611 24.7008L49.1604 24.7003L43.4835 20.7354C42.3516 19.9448 42.0749 18.3862 42.8655 17.2543ZM25.5391 62.8463C25.2993 61.4866 26.2072 60.1899 27.567 59.9502L51.2024 55.7826C52.5621 55.5428 53.8587 56.4508 54.0985 57.8105C54.3382 59.1702 53.4303 60.4669 52.0706 60.7066L28.4352 64.8742C27.0755 65.114 25.7788 64.206 25.5391 62.8463Z" fill="#333333" fill-opacity="0.1"/>
</svg>
