<svg width="58" height="73" viewBox="0 0 58 73" fill="none" xmlns="http://www.w3.org/2000/svg">
<path fill-rule="evenodd" clip-rule="evenodd" d="M36.1437 62.0971C39.5358 64.4714 44.2101 63.6477 46.5863 60.2572C46.5866 60.2568 46.5869 60.2563 46.5872 60.2559C47.1897 59.3973 47.605 58.4218 47.8062 57.3924L57.2342 9.05842L57.2343 9.0583C57.7834 6.24375 56.6829 3.2325 54.1743 1.47589C51.6654 -0.280807 48.4594 -0.284982 46.0023 1.19373L3.80816 26.5843C2.90944 27.1253 2.13459 27.8494 1.53391 28.7094C-0.840311 32.1017 -0.0161787 36.7762 3.3749 39.1521C4.45193 39.9084 5.70957 40.3671 7.02068 40.4815L7.02101 40.4816L24.284 41.9904L24.2843 41.9905C24.7187 42.0284 25.1354 42.1804 25.4922 42.4311L25.4987 42.4356C25.8563 42.6852 26.1417 43.0248 26.326 43.4202L26.3261 43.4203L33.6482 59.1261L33.6483 59.1264C34.2042 60.319 35.065 61.3437 36.1437 62.0971ZM42.4924 57.3867C41.7004 58.5177 40.1416 58.7926 39.0104 58.0006L39.0073 57.9984C38.6497 57.7488 38.3643 57.4092 38.1801 57.0139L38.18 57.0137L30.8579 41.3077C30.302 40.1152 29.4413 39.0906 28.3628 38.3372C27.2863 37.5819 26.0296 37.1239 24.7194 37.0094L7.45605 35.5005L7.45573 35.5005C7.02137 35.4626 6.60473 35.3106 6.24797 35.06L6.2446 35.0576C5.11354 34.2657 4.83868 32.7069 5.63067 31.5758L5.63274 31.5729C5.83183 31.2877 6.08869 31.0476 6.38663 30.8681L48.5804 5.47781C49.4059 4.981 50.4742 4.98897 51.3064 5.57165C52.1383 6.1542 52.5113 7.15523 52.3268 8.10091L52.3267 8.10104L42.8991 56.4333C42.899 56.4336 42.899 56.4339 42.8989 56.4342C42.832 56.7757 42.6942 57.0993 42.4942 57.3841L42.4924 57.3867Z" fill="#333333" fill-opacity="0.1"/>
<path fill-rule="evenodd" clip-rule="evenodd" d="M4.63693 72.2224C5.76794 73.0143 7.32681 72.7394 8.11875 71.6084L16.7224 59.3212C17.5143 58.1901 17.2395 56.6313 16.1085 55.8393C14.9774 55.0474 13.4186 55.3223 12.6266 56.4533L4.02299 68.7405C3.23105 69.8716 3.50592 71.4304 4.63693 72.2224Z" fill="#333333" fill-opacity="0.1"/>
<path fill-rule="evenodd" clip-rule="evenodd" d="M18.5643 69.7666C19.6953 70.5585 21.2542 70.2837 22.0461 69.1527L27.7818 60.9612C28.5737 59.8302 28.2989 58.2714 27.1679 57.4794C26.0368 56.6875 24.478 56.9623 23.686 58.0934L17.9503 66.2848C17.1584 67.4158 17.4333 68.9747 18.5643 69.7666Z" fill="#333333" fill-opacity="0.1"/>
<path fill-rule="evenodd" clip-rule="evenodd" d="M2.18116 58.295C3.31218 59.087 4.87104 58.8121 5.66298 57.6811L11.3987 49.4897C12.1906 48.3586 11.9158 46.7998 10.7847 46.0078C9.65372 45.2159 8.09486 45.4908 7.30292 46.6218L1.56722 54.8132C0.77528 55.9442 1.05015 57.5031 2.18116 58.295Z" fill="#333333" fill-opacity="0.1"/>
<path fill-rule="evenodd" clip-rule="evenodd" d="M31.2311 34.2419C32.3621 35.0339 33.921 34.759 34.7129 33.628L43.3166 21.3407C44.1085 20.2097 43.8337 18.6508 42.7026 17.8589C41.5716 17.0669 40.0128 17.3418 39.2208 18.4728L30.6172 30.7601C29.8252 31.8911 30.1001 33.45 31.2311 34.2419Z" fill="#333333" fill-opacity="0.1"/>
</svg>
