<svg width="33" height="30" viewBox="0 0 33 30" fill="none" xmlns="http://www.w3.org/2000/svg">
<path d="M5.77777 23.75V11.25C5.77777 8.48844 8.0164 6.25 10.7778 6.25H7.02777C4.2664 6.25 2.02777 8.48844 2.02777 11.25V23.75C2.02777 26.5114 4.2664 28.75 7.02777 28.75H10.7778C8.0164 28.75 5.77777 26.5114 5.77777 23.75Z" fill="#333333" fill-opacity="0.1"/>
<path fill-rule="evenodd" clip-rule="evenodd" d="M7.02777 7.5C4.95669 7.5 3.27777 9.17892 3.27777 11.25V23.75C3.27777 25.8211 4.95669 27.5 7.02777 27.5H26.5278C28.5989 27.5 30.2778 25.8211 30.2778 23.75V11.25C30.2778 9.17892 28.5989 7.5 26.5278 7.5H24.2778C23.5874 7.5 23.0278 6.94036 23.0278 6.25C23.0278 5.55964 23.5874 5 24.2778 5H26.5278C29.9796 5 32.7778 7.79821 32.7778 11.25V23.75C32.7778 27.2018 29.9796 30 26.5278 30H7.02777C3.57598 30 0.777771 27.2018 0.777771 23.75V11.25C0.777771 7.79821 3.57598 5 7.02777 5H9.52777C10.2181 5 10.7778 5.55964 10.7778 6.25C10.7778 6.94036 10.2181 7.5 9.52777 7.5H7.02777Z" fill="#333333"/>
<path fill-rule="evenodd" clip-rule="evenodd" d="M9.52777 15C8.83744 15 8.27777 15.5597 8.27777 16.25V21.25C8.27777 21.9403 8.83744 22.5 9.52777 22.5H11.7778C12.4681 22.5 13.0278 21.9403 13.0278 21.25V16.25C13.0278 15.5597 12.4681 15 11.7778 15H9.52777ZM5.77777 16.25C5.77777 14.179 7.45673 12.5 9.52777 12.5H11.7778C13.8488 12.5 15.5278 14.179 15.5278 16.25V21.25C15.5278 23.321 13.8488 25 11.7778 25H9.52777C7.45673 25 5.77777 23.321 5.77777 21.25V16.25ZM18.0278 13.75C18.0278 13.0596 18.5874 12.5 19.2778 12.5H26.5278C27.2181 12.5 27.7778 13.0596 27.7778 13.75C27.7778 14.4404 27.2181 15 26.5278 15H19.2778C18.5874 15 18.0278 14.4404 18.0278 13.75ZM18.0278 18.75C18.0278 18.0596 18.5874 17.5 19.2778 17.5H26.5278C27.2181 17.5 27.7778 18.0596 27.7778 18.75C27.7778 19.4404 27.2181 20 26.5278 20H19.2778C18.5874 20 18.0278 19.4404 18.0278 18.75ZM18.0278 23.75C18.0278 23.0596 18.5874 22.5 19.2778 22.5H26.5278C27.2181 22.5 27.7778 23.0596 27.7778 23.75C27.7778 24.4404 27.2181 25 26.5278 25H19.2778C18.5874 25 18.0278 24.4404 18.0278 23.75Z" fill="#333333"/>
<path fill-rule="evenodd" clip-rule="evenodd" d="M13.0278 1.25C13.0278 0.559644 13.5874 0 14.2778 0H19.2778C19.9681 0 20.5278 0.559644 20.5278 1.25V6.25C20.5278 8.32104 18.8488 10 16.7778 10C14.7067 10 13.0278 8.32104 13.0278 6.25V1.25ZM15.5278 2.5V6.25C15.5278 6.94033 16.0874 7.5 16.7778 7.5C17.4681 7.5 18.0278 6.94033 18.0278 6.25V2.5H15.5278Z" fill="#FFCC33"/>
</svg>
