<svg width="33" height="30" viewBox="0 0 33 30" fill="none" xmlns="http://www.w3.org/2000/svg">
<path d="M5.33334 1.56969L5.08266 1.45757C4.76745 1.32012 4.42721 1.24941 4.08334 1.24988C2.70266 1.24988 1.58334 2.36919 1.58334 3.74988V21.2499C1.58334 22.3027 2.23416 23.2035 3.15528 23.5719L5.33334 24.461V1.56969Z" fill="#333333" fill-opacity="0.1"/>
<path d="M2.68741 24.7311L14.933 29.7293L14.9412 29.7326C15.8379 30.0904 16.838 30.0892 17.7338 29.7293L29.9794 24.7311C31.4096 24.1574 32.3335 22.7914 32.3335 21.2501V3.74988C32.3335 1.68213 30.6512 -0.00012207 28.5835 -0.00012207C28.063 -0.00012207 27.5585 0.104878 27.084 0.31194L27.0737 0.316503L16.8283 4.89838C16.5165 5.03313 16.15 5.03307 15.8382 4.89832L5.59297 0.316503C5.58958 0.314991 5.58618 0.313491 5.58278 0.312003C5.10841 0.104878 4.60397 -0.00012207 4.08334 -0.00012207C2.01559 -0.00012207 0.333344 1.68213 0.333344 3.74988V21.2499C0.333344 22.7913 1.25722 24.1573 2.68741 24.7311ZM2.83334 3.74988C2.83334 3.06063 3.39409 2.49988 4.08334 2.49988C4.25597 2.49988 4.42234 2.53394 4.57803 2.60119L14.8238 7.18325L14.8342 7.18782C15.3089 7.3946 15.8213 7.50094 16.3391 7.50014C16.8569 7.49934 17.3689 7.39143 17.843 7.18319L28.0883 2.60132C28.2446 2.5339 28.4132 2.49935 28.5834 2.49982C29.2727 2.49982 29.8334 3.06057 29.8334 3.74982V21.25C29.8334 21.7644 29.5248 22.2203 29.0472 22.4113L29.0391 22.4146L16.7936 27.4128C16.5019 27.5283 16.1649 27.5283 15.8732 27.4128L3.62766 22.4147L3.61953 22.4114C3.14191 22.2204 2.83334 21.7644 2.83334 21.2499V3.74988Z" fill="#333333"/>
<path d="M21.5475 22.7181L26.5475 20.7186C27.1885 20.4623 27.5003 19.7348 27.244 19.0938C26.9876 18.4529 26.2602 18.1409 25.6191 18.3973L20.6191 20.3968C19.9781 20.6532 19.6663 21.3806 19.9226 22.0216C20.1778 22.6595 20.9035 22.9757 21.5475 22.7181ZM6.08308 8.71383L11.0831 10.8973C11.713 11.1724 12.4515 10.8873 12.7289 10.252C13.0051 9.61932 12.7163 8.88251 12.0836 8.6062L7.08358 6.4227C6.45102 6.14645 5.71408 6.43532 5.43777 7.06801C5.16152 7.7007 5.45045 8.43751 6.08308 8.71383ZM20.3825 16.3426C20.5517 16.4571 20.7463 16.5284 20.9494 16.5503C21.1525 16.5722 21.3578 16.544 21.5475 16.4681L26.5475 14.4686C26.7795 14.3759 26.9784 14.2157 27.1184 14.0088C27.2585 13.802 27.3334 13.5579 27.3334 13.308V7.56826C27.3334 7.36069 27.2817 7.15639 27.183 6.97379C27.0843 6.7912 26.9416 6.63606 26.768 6.52238C26.5943 6.4087 26.395 6.34007 26.1882 6.32266C25.9813 6.30526 25.7734 6.33964 25.5832 6.4227L20.5832 8.60576C20.3603 8.70306 20.1707 8.86327 20.0375 9.06674C19.9043 9.27022 19.8333 9.50813 19.8333 9.75132V15.3075C19.8333 15.7223 20.0391 16.11 20.3825 16.3426ZM22.3333 10.5695L24.8333 9.47801V12.4616L22.3333 13.4614V10.5695ZM12.0475 14.1469L7.04745 12.1474C6.85778 12.0716 6.65242 12.0434 6.44934 12.0653C6.24625 12.0871 6.05161 12.1585 5.88245 12.273C5.71333 12.3875 5.57485 12.5417 5.47912 12.7222C5.3834 12.9026 5.33334 13.1038 5.33333 13.308V19.558C5.33332 19.8079 5.40818 20.052 5.54826 20.2589C5.68834 20.4657 5.88721 20.6259 6.1192 20.7186L11.1192 22.7181C11.3089 22.794 11.5142 22.8222 11.7173 22.8003C11.9204 22.7784 12.115 22.7071 12.2842 22.5925C12.4533 22.478 12.5918 22.3238 12.6876 22.1434C12.7833 21.9629 12.8334 21.7618 12.8334 21.5575V15.3075C12.8334 15.0577 12.7585 14.8136 12.6184 14.6067C12.4783 14.3998 12.2794 14.2396 12.0475 14.1469ZM10.3333 19.7114L7.83333 18.7116V15.1541L10.3333 16.1539V19.7114Z" fill="#333333"/>
<path d="M17.5833 11.2499C17.5833 10.5595 17.0237 9.99988 16.3333 9.99988C15.643 9.99988 15.0833 10.5595 15.0833 11.2499V23.7499C15.0833 24.4403 15.643 24.9999 16.3333 24.9999C17.0237 24.9999 17.5833 24.4403 17.5833 23.7499V11.2499Z" fill="#FFCC33"/>
</svg>
