<svg width="33" height="32" viewBox="0 0 33 32" fill="none" xmlns="http://www.w3.org/2000/svg">
<path d="M5.55554 21V11C5.55554 8.23856 7.7941 6 10.5555 6H6.80554C4.0441 6 1.80554 8.23856 1.80554 11V21C1.80554 23.7614 4.0441 26 6.80554 26H10.5555C7.7941 26 5.55554 23.7614 5.55554 21Z" fill="#333333" fill-opacity="0.1"/>
<path d="M18.0555 18.5C18.0555 17.9202 17.9191 17.3408 17.661 16.8244L15.161 11.8244C14.5211 10.5449 13.2354 9.75 11.8055 9.75C10.3757 9.75 9.08998 10.5449 8.4501 11.8244L5.95004 16.8245C5.69198 17.3408 5.55554 17.9202 5.55554 18.5C5.55554 20.5677 7.23779 22.25 9.30554 22.25H14.3055C16.3733 22.25 18.0555 20.5677 18.0555 18.5ZM8.05554 18.5C8.05554 18.3034 8.09954 18.1159 8.18617 17.9425L10.6862 12.9426C10.8997 12.5154 11.3287 12.25 11.8055 12.25C12.2824 12.25 12.7114 12.5154 12.9249 12.9425L15.4249 17.9424C15.5115 18.1155 15.5563 18.3065 15.5556 18.5001C15.5556 19.1893 14.9949 19.7501 14.3056 19.7501H9.3056C8.61629 19.75 8.05554 19.1892 8.05554 18.5Z" fill="#FFCC33"/>
<path d="M26.3055 4.75H6.80554C3.35929 4.75 0.555542 7.55375 0.555542 11V21C0.555542 24.0183 2.70623 26.5436 5.55554 27.1243V30.75C5.55554 31.4404 6.11517 32 6.80554 32C7.49592 32 8.05554 31.4404 8.05554 30.75V27.25H25.0555V30.75C25.0555 31.4404 25.6152 32 26.3055 32C26.9959 32 27.5555 31.4404 27.5555 30.75V27.1243C30.4049 26.5436 32.5555 24.0182 32.5555 21V11C32.5555 7.55375 29.7518 4.75 26.3055 4.75ZM30.0555 21C30.0555 23.0677 28.3733 24.75 26.3055 24.75H6.80554C4.73779 24.75 3.05554 23.0677 3.05554 21V11C3.05554 8.93225 4.73779 7.25 6.80554 7.25H26.3055C28.3733 7.25 30.0555 8.93225 30.0555 11V21ZM6.55554 0C5.86517 0 5.30554 0.559625 5.30554 1.25C5.30554 1.94037 5.86517 2.5 6.55554 2.5H9.05554C9.74592 2.5 10.3055 1.94037 10.3055 1.25C10.3055 0.559625 9.74592 0 9.05554 0H6.55554ZM14.0555 1.25C14.0555 1.94037 14.6152 2.5 15.3055 2.5H17.8055C18.4959 2.5 19.0555 1.94037 19.0555 1.25C19.0555 0.559625 18.4959 0 17.8055 0H15.3055C14.6152 0 14.0555 0.559625 14.0555 1.25ZM26.5555 2.5C27.2459 2.5 27.8055 1.94037 27.8055 1.25C27.8055 0.559625 27.2459 0 26.5555 0H24.0555C23.3652 0 22.8055 0.559625 22.8055 1.25C22.8055 1.94037 23.3652 2.5 24.0555 2.5H26.5555Z" fill="#333333"/>
<path d="M21.3055 12.25H23.8055C24.4959 12.25 25.0555 11.6904 25.0555 11C25.0555 10.3096 24.4959 9.75 23.8055 9.75H21.3055C20.6152 9.75 20.0555 10.3096 20.0555 11C20.0555 11.6904 20.6152 12.25 21.3055 12.25ZM26.3055 14.75H21.3055C20.6152 14.75 20.0555 15.3096 20.0555 16C20.0555 16.6904 20.6152 17.25 21.3055 17.25H26.3055C26.9959 17.25 27.5555 16.6904 27.5555 16C27.5555 15.3096 26.9959 14.75 26.3055 14.75ZM26.3055 19.75H21.3055C20.6152 19.75 20.0555 20.3096 20.0555 21C20.0555 21.6904 20.6152 22.25 21.3055 22.25H26.3055C26.9959 22.25 27.5555 21.6904 27.5555 21C27.5555 20.3096 26.9959 19.75 26.3055 19.75Z" fill="#333333"/>
</svg>
