<svg width="33" height="30" viewBox="0 0 33 30" fill="none" xmlns="http://www.w3.org/2000/svg">
<path d="M5.66675 25.454V10.454C5.66675 7.6926 7.90531 5.45404 10.6667 5.45404H6.91675C4.15531 5.45404 1.91675 7.6926 1.91675 10.454V25.454C1.91675 26.8347 3.03606 27.954 4.41675 27.954C5.05669 27.954 5.6405 27.7135 6.08287 27.318L6.30369 27.1205C5.90775 26.6782 5.66675 26.0944 5.66675 25.454Z" fill="#333333" fill-opacity="0.1"/>
<path d="M6.91675 19.204H10.6667C11.3571 19.204 11.9167 18.6444 11.9167 17.954C11.9167 17.2637 11.3571 16.704 10.6667 16.704H6.91675C6.22637 16.704 5.66675 17.2637 5.66675 17.954C5.66675 18.6444 6.22637 19.204 6.91675 19.204ZM6.91675 14.204H10.6667C11.3571 14.204 11.9167 13.6444 11.9167 12.954C11.9167 12.2637 11.3571 11.704 10.6667 11.704H6.91675C6.22637 11.704 5.66675 12.2637 5.66675 12.954C5.66675 13.6444 6.22637 14.204 6.91675 14.204Z" fill="#FFCC33"/>
<path d="M14.2568 17.9541C14.2568 18.6444 14.8165 19.2041 15.5068 19.2041C18.1206 19.2041 20.578 18.1862 22.4263 16.3379L31.5675 7.1958C33.033 5.73037 33.0333 3.35818 31.5675 1.89249C30.1055 0.430367 27.7264 0.430367 26.2642 1.89249L17.123 11.0346C15.2748 12.8829 14.2568 15.3402 14.2568 17.9541ZM28.0321 3.6603C28.5193 3.17293 29.3125 3.17293 29.7998 3.6603C30.2883 4.14868 30.2885 4.93949 29.7998 5.42805L20.6585 14.5702C19.6135 15.6152 18.307 16.3036 16.8865 16.5744C17.1573 15.154 17.8458 13.8474 18.8906 12.8024L28.0321 3.6603Z" fill="#333333"/>
<path d="M4.41675 29.204C5.33901 29.2045 6.22902 28.8647 6.91625 28.2497L8.64419 26.704H21.4167C24.8631 26.704 27.6667 23.9003 27.6667 20.454V17.6501C27.6667 16.9597 27.1071 16.4001 26.4167 16.4001C25.7264 16.4001 25.1667 16.9597 25.1667 17.6501V20.454C25.1667 22.5218 23.4845 24.204 21.4167 24.204H8.16675C7.85926 24.204 7.56256 24.3174 7.33337 24.5224L5.24975 26.3862C5.02069 26.5911 4.72408 26.7043 4.41675 26.704C3.7275 26.704 3.16675 26.1433 3.16675 25.454V10.454C3.16675 8.38629 4.849 6.70404 6.91675 6.70404H17.4011C18.0914 6.70404 18.6511 6.14442 18.6511 5.45404C18.6511 4.76367 18.0914 4.20404 17.4011 4.20404H6.91675C3.47044 4.20404 0.666748 7.00779 0.666748 10.454V25.454C0.666748 27.5218 2.349 29.204 4.41675 29.204Z" fill="#333333"/>
</svg>
