<svg width="64" height="64" viewBox="0 0 64 64" fill="none" xmlns="http://www.w3.org/2000/svg">
<path d="M12.3058 26.9452C12.7993 26.4505 13.3913 26.065 14.0434 25.814L60.0054 8.13637C60.4808 7.95396 60.9812 7.84516 61.4894 7.81375C61.5759 6.43162 61.0918 5.0205 60.0356 3.96437C58.5937 2.5225 56.4901 2.14525 54.7022 2.83312L8.74018 20.5107C8.08804 20.7618 7.49601 21.1472 7.00255 21.642C5.04993 23.5946 5.04993 26.7605 7.00255 28.7131C7.6213 29.3339 8.39304 29.7802 9.23968 30.0069L10.8426 30.4362C10.8537 29.1715 11.3408 27.9102 12.3058 26.9452Z" fill="#333333" fill-opacity="0.1"/>
<path d="M33.5191 30.4809C34.4954 31.4571 36.0783 31.4573 37.0546 30.4809L47.6613 19.8743C48.6376 18.898 48.6376 17.315 47.6613 16.3388C46.6849 15.3625 45.102 15.3624 44.1258 16.3388L33.5191 26.9454C32.5428 27.9216 32.5428 29.5045 33.5191 30.4809Z" fill="#FFCC33"/>
<path d="M5.23481 19.8742C2.31056 22.7985 2.31056 27.5566 5.23481 30.4807C6.16458 31.411 7.32265 32.0803 8.59281 32.4216L25.3322 36.9052C26.1888 37.1346 26.8653 37.8111 27.0947 38.668L31.5782 55.4066C31.9195 56.6769 32.5888 57.8351 33.5191 58.765C36.4499 61.6959 41.1942 61.6966 44.1256 58.7651C44.8739 58.0169 45.4449 57.1392 45.8226 56.1571L63.5002 10.1951C64.5638 7.43036 63.8977 4.29086 61.8033 2.19648C59.7089 0.102107 56.5692 -0.564018 53.8047 0.499607L7.84269 18.1772C6.86044 18.5551 5.98294 19.126 5.23481 19.8742ZM8.77031 23.4097C9.01634 23.1622 9.31187 22.9695 9.63756 22.8441L55.5998 5.16636C56.5352 4.80648 57.5793 5.04361 58.2678 5.73211C58.6098 6.0746 58.8453 6.50886 58.9457 6.98235C59.0461 7.45584 59.0071 7.94828 58.8336 8.40011V8.40023L41.1557 54.3625C41.0303 54.6881 40.8376 54.9835 40.5901 55.2295C39.6132 56.2065 38.0319 56.2066 37.0546 55.2295C36.7394 54.9144 36.5219 54.5391 36.4081 54.1134L31.9244 37.3745C31.2342 34.7962 29.2076 32.7669 26.6256 32.0755L9.88619 27.5919C9.46081 27.478 9.08544 27.2605 8.77031 26.9452C7.79556 25.9705 7.79556 24.3845 8.77031 23.4097ZM0.732187 63.2676C1.70844 64.2439 3.29131 64.244 4.26769 63.2676L14.8743 52.661C15.8507 51.6846 15.8507 50.1017 14.8743 49.1255C13.8979 48.1492 12.3151 48.1491 11.3388 49.1255L0.732187 59.7321C-0.244062 60.7084 -0.244062 62.2912 0.732187 63.2676ZM18.4098 63.2676L25.4808 56.1966C26.4572 55.2202 26.4572 53.6374 25.4808 52.6611C24.5044 51.6849 22.9216 51.6847 21.9453 52.6611L14.8743 59.7321C13.8979 60.7085 13.8979 62.2914 14.8743 63.2676C15.8507 64.2439 17.4336 64.244 18.4098 63.2676ZM0.732187 49.1255C1.70844 50.1017 3.29131 50.1019 4.26769 49.1255L11.3387 42.0545C12.3151 41.0781 12.3151 39.4952 11.3387 38.519C10.3623 37.5427 8.77944 37.5426 7.80319 38.519L0.732187 45.59C-0.244062 46.5662 -0.244062 48.1491 0.732187 49.1255Z" fill="#333333"/>
</svg>
